# xmcd
#
# Track frame offsets:
# 151
# 15281
# 27611
# 37141
# 46744
# 54944
# 67484
# 76571
# 81871
# 89027
# 96255
# 100290
# 119229
# 134947
# 152961
# 159192
# 164787
# 168448
# 181376
# 194237
# 204493
# 215783
# 219460
#
# Disc length: 3112 seconds
#
#
# Revision: 1
# Processed by: cddbd v1.5.2PL0 Copyright (c) Steve Scherf et al.
# Submitted via: FreeRIP 2.951 
#
DISCID=600c2617
DTITLE=цяиба циыта - писта стгм паяадосг
DYEAR=2004
DGENRE=дглотийа
TTITLE0=поукиа лоу сас паяайакы
TTITLE1=кекоудо лг стокифесаи
TTITLE2=цати лаяг цакиамтяа
TTITLE3=де соу пежтеи есема коцос
TTITLE4=апоье ломос пеяпаты
TTITLE5=г йаядиа соу есема лоиафеи
TTITLE6=петанес тг беяа
TTITLE7=еды с' аутг тг цеитомиа
TTITLE8=цкуйо лоу векидоми
TTITLE9=кебемтг лоу ле т' акоцо
TTITLE10=тсопамопоуко апоье
TTITLE11=пгяа тоу гкиоу тис калпес
TTITLE12=лиа йоййиможояелемг
TTITLE13=аццекы
TTITLE14=паяе лаяио тг яойа соу
TTITLE15=ема поуки латфоуяама лоу
TTITLE16=дуосле йаи басикийе лоу
TTITLE17=ам гхекес ма памтяеутеис
TTITLE18=елема г ламоука лоу
TTITLE19=аццекийоука
TTITLE20=ягланам та выяиа лас
TTITLE21=фаваяоука
TTITLE22=амхисе йаи паки г алуцдакиа
EXTD=
EXTT0=
EXTT1=
EXTT2=
EXTT3=
EXTT4=
EXTT5=
EXTT6=
EXTT7=
EXTT8=
EXTT9=
EXTT10=
EXTT11=
EXTT12=
EXTT13=
EXTT14=
EXTT15=
EXTT16=
EXTT17=
EXTT18=
EXTT19=
EXTT20=
EXTT21=
EXTT22=
PLAYORDER=
